<svg width="31" height="29" viewBox="0 0 31 29" fill="none" xmlns="http://www.w3.org/2000/svg">
<path fill-rule="evenodd" clip-rule="evenodd" d="M3.27832 23.1655V20.0646H4.99228C6.09657 20.0646 6.99381 19.1687 6.99381 18.0661C6.99381 16.9636 6.09657 16.0677 4.99228 16.0677H3.27832V12.9667H4.99228C6.09657 12.9667 6.99381 12.0709 6.99381 10.9683C6.99381 9.87723 6.09657 8.9699 4.99228 8.9699H3.27832V5.86891H4.99228C6.09657 5.86891 6.99381 4.97307 6.99381 3.8705C6.99381 2.77941 6.09657 1.87208 4.99228 1.87208H3.32433C3.55439 0.80396 4.52065 0 5.65946 0H27.7223C29.0337 0 30.1035 1.06812 30.1035 2.37743V26.6111C30.1035 27.9204 29.0337 28.9885 27.7223 28.9885H5.65946C4.52065 28.9885 3.5659 28.1846 3.32433 27.1164H4.99228C6.09657 27.1164 6.99381 26.2206 6.99381 25.118C6.99381 24.0154 6.09657 23.1196 4.99228 23.1196H3.27832V23.1655Z" fill="#94CA6D"/>
<path fill-rule="evenodd" clip-rule="evenodd" d="M9.39795 26.3355V2.73349C9.39795 2.27408 9.76605 1.90656 10.2262 1.90656H27.6188C28.0789 1.90656 28.447 2.27408 28.447 2.73349V26.3355C28.447 26.7949 28.0789 27.1624 27.6188 27.1624H10.2262C9.76605 27.1624 9.39795 26.7949 9.39795 26.3355Z" fill="#FEFEFE"/>
<path fill-rule="evenodd" clip-rule="evenodd" d="M0 25.164C0 24.5093 0.540644 23.981 1.18482 23.981H5.04985C5.70552 23.981 6.23466 24.5208 6.23466 25.164C6.23466 25.8186 5.69402 26.347 5.04985 26.347H1.18482C0.529141 26.347 0 25.8072 0 25.164Z" fill="#94CA6D"/>
<path fill-rule="evenodd" clip-rule="evenodd" d="M0 18.0776C0 17.423 0.540644 16.8947 1.18482 16.8947H5.04985C5.70552 16.8947 6.23466 17.4345 6.23466 18.0776C6.23466 18.7323 5.69402 19.2606 5.04985 19.2606H1.18482C0.529141 19.2606 0 18.7208 0 18.0776Z" fill="#94CA6D"/>
<path fill-rule="evenodd" clip-rule="evenodd" d="M0 10.9913C0 10.3366 0.540644 9.80829 1.18482 9.80829H5.04985C5.70552 9.80829 6.23466 10.3481 6.23466 10.9913C6.23466 11.6459 5.69402 12.1742 5.04985 12.1742H1.18482C0.529141 12.1742 0 11.6344 0 10.9913Z" fill="#94CA6D"/>
<path fill-rule="evenodd" clip-rule="evenodd" d="M0 3.90496C0 3.2503 0.540644 2.72198 1.18482 2.72198H5.04985C5.70552 2.72198 6.23466 3.26179 6.23466 3.90496C6.23466 4.55961 5.69402 5.08793 5.04985 5.08793H1.18482C0.529141 5.08793 0 4.54812 0 3.90496Z" fill="#94CA6D"/>
<path fill-rule="evenodd" clip-rule="evenodd" d="M22.5 21.2475C23.1096 21.2475 23.5928 20.7422 23.5928 20.2368V20.2024C23.5928 19.5018 23.5813 19.1917 23.4777 18.4681C23.3627 17.6297 23.1556 16.8602 22.9026 16.0792C22.8336 15.884 22.7645 15.7232 22.6955 15.5394C22.661 15.436 22.6265 15.3671 22.592 15.2867C22.2814 14.5287 21.6027 13.3802 21.0621 12.7026C21.0046 12.6337 20.9586 12.5762 20.901 12.4958L20.0038 11.4851L19.3366 10.8764C18.9915 10.5663 18.3474 10.0954 17.9448 9.84277L16.7484 9.16514C16.4724 9.01584 15.7132 8.71722 15.4256 8.61386C14.0107 8.14297 12.8949 7.91326 11.3535 7.91326C10.6633 7.91326 10.1227 8.55643 10.2952 9.28C10.3987 9.68198 10.7553 9.99207 11.181 10.061L11.9747 10.0954C12.2277 10.0954 12.5038 10.1414 12.7339 10.1758C13.5736 10.2677 14.5974 10.5778 15.3451 10.8994C15.5406 10.9798 15.7247 11.0832 15.9087 11.1636C16.1043 11.2554 16.2538 11.3588 16.4494 11.4622C16.7024 11.6 17.1971 11.9331 17.4501 12.1283C17.5306 12.1972 17.5997 12.2432 17.6802 12.3121C17.7607 12.381 17.8297 12.4269 17.9102 12.4958C18.9915 13.4032 19.8198 14.5517 20.4524 15.7921C20.4984 15.884 20.5329 15.9873 20.579 16.0792C20.694 16.3089 20.8435 16.7339 20.9241 16.9865C21.0966 17.4919 21.1656 17.7905 21.2691 18.3188C21.3152 18.56 21.3497 18.8012 21.3842 19.0424C21.4417 19.5133 21.4187 20.3057 21.5222 20.5699C21.6602 20.9144 22.0283 21.2475 22.5115 21.2475H22.5ZM10.2377 12.8863C10.2377 13.2194 10.3067 13.5065 10.5713 13.7477C10.5943 13.7707 10.6863 13.8396 10.7208 13.8626C10.7668 13.897 10.8474 13.9315 10.8934 13.9545C11.1349 14.0578 11.8021 14.0463 12.2622 14.1152C12.9179 14.2071 13.286 14.3564 13.8497 14.5976C14.2983 14.7814 14.7584 15.08 15.1265 15.3786C16.1043 16.1481 16.8635 17.2507 17.2086 18.4681C17.3121 18.8471 17.4156 19.364 17.4386 19.7659C17.4616 20.1335 17.4156 20.3402 17.5652 20.6503C17.6112 20.7537 17.7032 20.88 17.7837 20.9489C18.0138 21.1442 18.2668 21.236 18.5084 21.2475H18.5659C18.8305 21.236 19.0951 21.1212 19.3021 20.903C19.3251 20.88 19.3596 20.8341 19.3826 20.7996C19.6587 20.455 19.5782 20.1564 19.5897 19.7545C19.5897 19.364 19.5092 18.939 19.4517 18.5945C19.1871 17.0095 18.2553 15.3901 17.1971 14.3335C16.3458 13.4836 15.2645 12.7485 13.9877 12.3236C13.6541 12.2087 13.332 12.1053 12.9639 12.0364C12.6763 11.979 12.0897 11.8871 11.8136 11.8871C11.296 11.8871 11.1004 11.7952 10.7208 12.0479C10.4908 12.1972 10.2262 12.5073 10.2262 12.8863H10.2377ZM10.2607 19.0309C10.2607 20.7307 11.9862 21.6495 13.332 21.0293C14.2178 20.6158 14.7469 19.6166 14.5398 18.6404C14.5053 18.4911 14.4823 18.3762 14.4133 18.2384C14.2063 17.7445 13.8727 17.377 13.401 17.1473C12.9524 16.9291 12.7914 16.9176 12.2967 16.9176C11.9517 16.9176 11.7216 17.021 11.48 17.1244C10.8589 17.377 10.2607 18.1925 10.2607 19.0309ZM26.4915 19.7315C27.1587 19.7889 27.6533 19.295 27.5958 18.7208V18.6863C27.5268 17.9053 27.4808 17.5723 27.2967 16.7683C27.0897 15.838 26.7791 14.9651 26.411 14.0808C26.319 13.8511 26.227 13.6788 26.1234 13.4606C26.0659 13.3457 26.0199 13.2653 25.9739 13.162C25.5598 12.2891 24.6856 10.9568 24.0184 10.1644C23.9379 10.0725 23.8918 10.0036 23.8228 9.92316L22.73 8.72871L21.9363 7.99366C21.5222 7.61465 20.763 7.02891 20.2914 6.71881L18.911 5.84594C18.5889 5.65069 17.7262 5.24871 17.3926 5.11089C15.7937 4.45623 14.5283 4.08871 12.8374 3.92792C12.0782 3.85901 11.549 4.50217 11.8136 5.31762C11.9632 5.76554 12.3888 6.14455 12.8719 6.27089L13.7461 6.39722C14.0337 6.42019 14.3328 6.51207 14.5859 6.55801C15.5176 6.74178 16.6794 7.17821 17.5421 7.61465C17.7607 7.7295 17.9908 7.84435 18.1978 7.97069C18.4164 8.09702 18.6004 8.21188 18.819 8.3497C19.1181 8.53346 19.6932 8.94693 19.9808 9.18811C20.0728 9.26851 20.1648 9.33742 20.2569 9.40633C20.3489 9.48673 20.4294 9.55564 20.5329 9.63603C21.8098 10.7386 22.8451 12.0824 23.6618 13.5295C23.7193 13.6444 23.7768 13.7477 23.8343 13.8626C23.9839 14.1267 24.1909 14.6091 24.306 14.8847C24.536 15.459 24.6625 15.8036 24.8121 16.3778C24.8811 16.6535 24.9501 16.9176 25.0076 17.1818C25.1227 17.6986 25.1802 18.583 25.3182 18.8816C25.5023 19.2721 25.9509 19.6855 26.48 19.7315H26.4915Z" fill="#94CA6D"/>
</svg>
