<svg width="200" height="28" viewBox="0 0 200 28" fill="none" xmlns="http://www.w3.org/2000/svg">
<path d="M36.7486 21.1109H32.6762L40.0756 0.0324631H44.7745L52.1847 21.1109H48.1231L42.5061 4.35209H42.344L36.7378 21.1109H36.7486ZM36.889 12.8506H47.9827V15.9144H36.889V12.8506ZM61.1828 27.3685C59.8542 27.3685 58.6984 27.1844 57.7478 26.8272C56.7864 26.4699 56.0194 25.9827 55.4361 25.3764C54.8636 24.7702 54.4531 24.1098 54.2263 23.3736L57.5749 22.5508C57.7262 22.8648 57.9422 23.1679 58.2339 23.471C58.5255 23.7742 58.9144 24.034 59.4005 24.2289C59.8866 24.4346 60.5131 24.532 61.2476 24.532C62.3062 24.532 63.1812 24.2722 63.8725 23.7634C64.5639 23.2545 64.9095 22.4101 64.9095 21.2517V18.2528H64.7259C64.5315 18.6318 64.2506 19.0323 63.8833 19.4329C63.5161 19.8443 63.03 20.1799 62.4359 20.4506C61.8418 20.7212 61.0856 20.8619 60.189 20.8619C58.9792 20.8619 57.8774 20.5805 56.8944 19.9959C55.9114 19.4221 55.1337 18.5668 54.5504 17.4301C53.9779 16.2825 53.6862 14.8534 53.6862 13.1321C53.6862 11.3999 53.9779 9.92755 54.5504 8.72585C55.1229 7.52415 55.9114 6.62558 56.8944 5.99766C57.8774 5.38057 58.9792 5.07744 60.189 5.07744C61.118 5.07744 61.8742 5.22901 62.4791 5.54297C63.0732 5.85692 63.5485 6.22501 63.9049 6.66888C64.2614 7.10193 64.5315 7.51332 64.7151 7.89224H64.9203V5.28314H68.5822V21.3491C68.5822 22.7024 68.2582 23.8175 67.6208 24.7052C66.9727 25.593 66.0978 26.2534 64.9743 26.6864C63.8509 27.1303 62.5979 27.3468 61.172 27.3468L61.1828 27.3685ZM61.2152 17.9605C62.0038 17.9605 62.6735 17.7657 63.2244 17.3868C63.7753 16.997 64.1966 16.4449 64.4883 15.7304C64.7691 15.005 64.9203 14.1389 64.9203 13.1321C64.9203 12.1361 64.7799 11.2592 64.4991 10.523C64.2182 9.77598 63.7969 9.19137 63.246 8.76915C62.6951 8.35776 62.0146 8.15207 61.2152 8.15207C60.3835 8.15207 59.6921 8.36859 59.1412 8.80163C58.5903 9.23468 58.1691 9.83012 57.8882 10.5771C57.6073 11.3349 57.4669 12.1794 57.4669 13.1429C57.4669 14.1064 57.6073 14.9509 57.899 15.6762C58.1799 16.4016 58.6011 16.9645 59.1628 17.3651C59.7246 17.7657 60.4051 17.9714 61.2152 17.9714V17.9605ZM79.3843 21.4141C77.8072 21.4141 76.4353 21.0785 75.2903 20.4181C74.1453 19.7577 73.2595 18.8158 72.6438 17.6033C72.0281 16.3799 71.7256 14.9509 71.7256 13.2945C71.7256 11.6706 72.0281 10.2415 72.6546 9.00733C73.2703 7.77315 74.1345 6.82045 75.2579 6.12758C76.3705 5.43471 77.6776 5.09909 79.1898 5.09909C80.162 5.09909 81.0802 5.25066 81.9444 5.56462C82.8085 5.87858 83.5755 6.35493 84.2452 7.0045C84.9149 7.65406 85.4442 8.48768 85.8223 9.49451C86.2112 10.5013 86.3948 11.6922 86.3948 13.078V14.2255H73.4648V11.7139H82.8301C82.8301 10.9993 82.6681 10.3606 82.3657 9.79764C82.0632 9.24551 81.6419 8.80163 81.1018 8.47685C80.5617 8.15207 79.9352 7.98967 79.2223 7.98967C78.4661 7.98967 77.7964 8.17372 77.2239 8.54181C76.6514 8.90989 76.1977 9.39707 75.8844 9.98168C75.5712 10.5771 75.3983 11.2267 75.3983 11.9304V14.1173C75.3983 15.0375 75.5604 15.8278 75.906 16.4774C76.2409 17.1378 76.7054 17.6358 77.3103 17.9822C77.9152 18.3286 78.6173 18.5019 79.4275 18.5019C79.9676 18.5019 80.4537 18.4261 80.8966 18.2745C81.3287 18.1229 81.7067 17.8956 82.0308 17.5925C82.3549 17.2893 82.5925 16.9212 82.7545 16.4774L86.2328 16.8671C86.0168 17.7873 85.5955 18.5885 84.9797 19.2705C84.364 19.9526 83.5863 20.483 82.6357 20.8511C81.6851 21.2192 80.5941 21.4141 79.3627 21.4141H79.3843ZM93.2541 11.8438V21.1109H89.5382V5.30479H93.0921V7.98967H93.2757C93.6322 7.10193 94.2155 6.40906 95.0149 5.87858C95.8142 5.35892 96.7972 5.09909 97.9746 5.09909C99.0656 5.09909 100.016 5.32644 100.826 5.80279C101.637 6.26832 102.263 6.93954 102.717 7.82728C103.17 8.71502 103.386 9.78681 103.386 11.0535V21.1218H99.6705V11.6273C99.6705 10.5771 99.4005 9.74351 98.8496 9.14807C98.3095 8.55263 97.5533 8.2495 96.592 8.2495C95.9438 8.2495 95.3605 8.39024 94.8636 8.67172C94.3667 8.9532 93.9671 9.36459 93.6862 9.9059C93.4054 10.4364 93.2649 11.0859 93.2649 11.8438H93.2541ZM113.022 21.3924C111.78 21.3924 110.678 21.0676 109.695 20.4289C108.712 19.7902 107.945 18.8591 107.372 17.6466C106.8 16.4341 106.519 14.9509 106.519 13.2187C106.519 11.4649 106.811 9.98168 107.383 8.75833C107.956 7.5458 108.744 6.63641 109.727 6.00849C110.71 5.3914 111.812 5.08827 113.022 5.08827C113.951 5.08827 114.707 5.23983 115.301 5.55379C115.895 5.86775 116.371 6.23584 116.716 6.67971C117.062 7.11276 117.343 7.52415 117.526 7.90306H117.678V0.021637H121.404V21.1001H117.742V18.6101H117.516C117.332 18.9999 117.051 19.4004 116.684 19.8335C116.317 20.2665 115.841 20.6238 115.247 20.9269C114.653 21.23 113.908 21.3816 113 21.3816L113.022 21.3924ZM114.059 18.3395C114.847 18.3395 115.517 18.1229 116.068 17.7007C116.619 17.2677 117.04 16.6722 117.332 15.9036C117.613 15.1349 117.764 14.2364 117.764 13.2187C117.764 12.1902 117.624 11.3025 117.343 10.5555C117.062 9.79764 116.641 9.21303 116.09 8.79081C115.539 8.37941 114.858 8.16289 114.059 8.16289C113.227 8.16289 112.536 8.37941 111.985 8.81246C111.434 9.2455 111.013 9.84094 110.732 10.5988C110.451 11.3674 110.311 12.2335 110.311 13.2187C110.311 14.2039 110.451 15.0808 110.743 15.8603C111.023 16.6289 111.445 17.246 112.006 17.6791C112.568 18.1229 113.249 18.3503 114.059 18.3503V18.3395ZM129.938 21.4357C128.944 21.4357 128.037 21.2517 127.237 20.8944C126.438 20.5372 125.812 19.9959 125.347 19.2922C124.883 18.5885 124.656 17.7115 124.656 16.6831C124.656 15.7845 124.818 15.0483 125.153 14.4745C125.477 13.8899 125.93 13.4244 126.492 13.078C127.065 12.7207 127.702 12.4609 128.426 12.2768C129.139 12.0928 129.884 11.9629 130.651 11.8763C131.569 11.7788 132.325 11.6922 132.898 11.6056C133.47 11.5298 133.891 11.3999 134.151 11.2375C134.41 11.0643 134.55 10.8045 134.55 10.4472V10.3822C134.55 9.60277 134.324 9.00733 133.859 8.58511C133.405 8.16289 132.746 7.94637 131.882 7.94637C130.975 7.94637 130.251 8.14124 129.722 8.54181C129.193 8.94237 128.836 9.4079 128.652 9.9492L125.174 9.4512C125.444 8.48768 125.898 7.68654 126.535 7.03697C127.162 6.3874 127.929 5.90023 128.847 5.57544C129.754 5.25066 130.77 5.08827 131.871 5.08827C132.628 5.08827 133.384 5.17488 134.14 5.3481C134.896 5.53214 135.577 5.82445 136.203 6.22501C136.819 6.63641 137.326 7.18854 137.705 7.88141C138.083 8.58511 138.277 9.46203 138.277 10.5122V21.0893H134.702V18.9132H134.572C134.345 19.3571 134.032 19.7685 133.621 20.1474C133.211 20.5263 132.703 20.8295 132.088 21.0676C131.472 21.295 130.759 21.4141 129.938 21.4141V21.4357ZM130.899 18.6967C131.645 18.6967 132.293 18.5452 132.844 18.2528C133.395 17.9497 133.816 17.56 134.107 17.062C134.41 16.564 134.561 16.0335 134.561 15.4381V13.576C134.442 13.6734 134.248 13.76 133.967 13.8466C133.697 13.9332 133.384 13.9982 133.038 14.0631C132.692 14.1281 132.358 14.1822 132.023 14.2364C131.688 14.2905 131.396 14.323 131.148 14.3554C130.586 14.4312 130.089 14.5503 129.657 14.7235C129.214 14.8967 128.868 15.1349 128.62 15.4381C128.372 15.7412 128.242 16.1309 128.242 16.6181C128.242 17.3001 128.49 17.8198 128.987 18.1771C129.484 18.5235 130.122 18.6967 130.899 18.6967Z" fill="#94CA6D"/>
<path d="M144.92 21.111L138.979 0.0324707H143.073L146.865 15.5247H147.059L151.11 0.0324707H154.837L158.898 15.5355H159.082L162.873 0.0324707H166.967L161.037 21.111H157.278L153.065 6.32245H152.903L148.69 21.111H144.931H144.92ZM174.799 21.4249C173.222 21.4249 171.85 21.0893 170.705 20.4289C169.56 19.7685 168.674 18.8266 168.058 17.6141C167.443 16.3908 167.14 14.9617 167.14 13.3053C167.14 11.6814 167.443 10.2523 168.069 9.01816C168.685 7.78398 169.549 6.83128 170.672 6.13841C171.785 5.44554 173.092 5.10993 174.604 5.10993C175.577 5.10993 176.495 5.26149 177.359 5.57545C178.223 5.88941 178.99 6.36576 179.66 7.01533C180.329 7.6649 180.859 8.49851 181.237 9.50534C181.626 10.5122 181.809 11.703 181.809 13.0888V14.2364H168.879V11.7247H178.245C178.245 11.0102 178.083 10.3714 177.78 9.80847C177.478 9.25634 177.056 8.81247 176.516 8.48768C175.976 8.1629 175.35 8.00051 174.637 8.00051C173.881 8.00051 173.211 8.18455 172.638 8.55264C172.066 8.92073 171.612 9.4079 171.299 9.99251C170.986 10.588 170.813 11.2375 170.813 11.9412V14.1281C170.813 15.0483 170.975 15.8386 171.321 16.4882C171.655 17.1486 172.12 17.6466 172.725 17.993C173.33 18.3395 174.032 18.5127 174.842 18.5127C175.382 18.5127 175.868 18.4369 176.311 18.2853C176.743 18.1338 177.121 17.9064 177.445 17.6033C177.769 17.3002 178.007 16.9321 178.169 16.4882L181.647 16.8779C181.431 17.7982 181.01 18.5993 180.394 19.2813C179.779 19.9634 179.001 20.4939 178.05 20.862C177.1 21.23 176.009 21.4249 174.777 21.4249H174.799ZM185.115 21.111V0.0324707H188.831V7.9139H188.982C189.166 7.53498 189.446 7.12359 189.792 6.69054C190.138 6.2575 190.613 5.87858 191.207 5.56463C191.801 5.25067 192.557 5.0991 193.486 5.0991C194.707 5.0991 195.809 5.40223 196.792 6.01932C197.775 6.64724 198.553 7.55663 199.136 8.76916C199.708 9.98169 200 11.4649 200 13.2295C200 14.9617 199.719 16.4449 199.147 17.6574C198.574 18.8699 197.807 19.801 196.824 20.4397C195.841 21.0785 194.729 21.4033 193.497 21.4033C192.601 21.4033 191.844 21.2517 191.25 20.9486C190.656 20.6454 190.181 20.2882 189.814 19.8551C189.457 19.4221 189.176 19.0215 188.982 18.6318H188.766V21.1218H185.104L185.115 21.111ZM188.766 13.2079C188.766 14.2255 188.906 15.1241 189.198 15.8928C189.49 16.6614 189.911 17.2569 190.462 17.6899C191.013 18.1121 191.682 18.3286 192.471 18.3286C193.292 18.3286 193.983 18.1013 194.534 17.6574C195.085 17.2135 195.506 16.6073 195.798 15.8386C196.079 15.07 196.23 14.1822 196.23 13.1971C196.23 12.2119 196.09 11.3458 195.809 10.5771C195.528 9.8193 195.107 9.22386 194.556 8.79081C194.005 8.35777 193.314 8.14124 192.482 8.14124C191.682 8.14124 191.013 8.35777 190.462 8.76916C189.911 9.19138 189.49 9.77599 189.198 10.5338C188.917 11.2917 188.777 12.1794 188.777 13.1971L188.766 13.2079Z" fill="#41B1C6"/>
<path fill-rule="evenodd" clip-rule="evenodd" d="M3.07861 21.8363V18.9133H4.68812C5.72512 18.9133 6.56768 18.0688 6.56768 17.0295C6.56768 15.9902 5.72512 15.1458 4.68812 15.1458H3.07861V12.2227H4.68812C5.72512 12.2227 6.56768 11.3783 6.56768 10.339C6.56768 9.31048 5.72512 8.45521 4.68812 8.45521H3.07861V5.53216H4.68812C5.72512 5.53216 6.56768 4.68772 6.56768 3.64841C6.56768 2.61992 5.72512 1.76466 4.68812 1.76466H3.12182C3.33786 0.757829 4.24524 0 5.31464 0H26.033C27.2644 0 28.269 1.00683 28.269 2.24101V25.0842C28.269 26.3183 27.2644 27.3252 26.033 27.3252H5.31464C4.24524 27.3252 3.34866 26.5673 3.12182 25.5605H4.68812C5.72512 25.5605 6.56768 24.7161 6.56768 23.6768C6.56768 22.6374 5.72512 21.793 4.68812 21.793H3.07861V21.8363Z" fill="#94CA6D"/>
<path fill-rule="evenodd" clip-rule="evenodd" d="M8.82526 24.8243V2.5766C8.82526 2.14356 9.17092 1.79712 9.603 1.79712H25.9357C26.3678 1.79712 26.7135 2.14356 26.7135 2.5766V24.8243C26.7135 25.2574 26.3678 25.6038 25.9357 25.6038H9.603C9.17092 25.6038 8.82526 25.2574 8.82526 24.8243Z" fill="#FEFEFE"/>
<path fill-rule="evenodd" clip-rule="evenodd" d="M0 23.7201C0 23.103 0.507696 22.605 1.11261 22.605H4.7421C5.35782 22.605 5.85471 23.1138 5.85471 23.7201C5.85471 24.3372 5.34702 24.8352 4.7421 24.8352H1.11261C0.496894 24.8352 0 24.3263 0 23.7201Z" fill="#94CA6D"/>
<path fill-rule="evenodd" clip-rule="evenodd" d="M0 17.0404C0 16.4233 0.507696 15.9253 1.11261 15.9253H4.7421C5.35782 15.9253 5.85471 16.4341 5.85471 17.0404C5.85471 17.6574 5.34702 18.1554 4.7421 18.1554H1.11261C0.496894 18.1554 0 17.6466 0 17.0404Z" fill="#94CA6D"/>
<path fill-rule="evenodd" clip-rule="evenodd" d="M0 10.3606C0 9.74352 0.507696 9.24551 1.11261 9.24551H4.7421C5.35782 9.24551 5.85471 9.75434 5.85471 10.3606C5.85471 10.9777 5.34702 11.4757 4.7421 11.4757H1.11261C0.496894 11.4757 0 10.9669 0 10.3606Z" fill="#94CA6D"/>
<path fill-rule="evenodd" clip-rule="evenodd" d="M0 3.68089C0 3.0638 0.507696 2.5658 1.11261 2.5658H4.7421C5.35782 2.5658 5.85471 3.07462 5.85471 3.68089C5.85471 4.29798 5.34702 4.79598 4.7421 4.79598H1.11261C0.496894 4.79598 0 4.28715 0 3.68089Z" fill="#94CA6D"/>
<path fill-rule="evenodd" clip-rule="evenodd" d="M21.1288 20.0283C21.7013 20.0283 22.155 19.552 22.155 19.0756V19.0432C22.155 18.3828 22.1441 18.0905 22.0469 17.4084C21.9389 16.6181 21.7445 15.8928 21.5068 15.1566C21.442 14.9725 21.3772 14.821 21.3124 14.6478C21.28 14.5503 21.2476 14.4854 21.2152 14.4096C20.9235 13.6951 20.2862 12.6124 19.7785 11.9737C19.7245 11.9087 19.6813 11.8546 19.6273 11.7788L18.7847 10.8261L18.1582 10.2523C17.8341 9.96003 17.2292 9.51616 16.8511 9.27799L15.7277 8.63925C15.4685 8.49851 14.7555 8.21703 14.4855 8.11959C13.1568 7.67572 12.109 7.4592 10.6616 7.4592C10.0134 7.4592 9.50575 8.06546 9.66778 8.74751C9.765 9.12642 10.0999 9.41873 10.4995 9.48368L11.2449 9.51616C11.4825 9.51616 11.7418 9.55947 11.9578 9.59195C12.7464 9.67855 13.7077 9.97086 14.4099 10.274C14.5935 10.3498 14.7663 10.4472 14.9392 10.523C15.1228 10.6096 15.2632 10.707 15.4469 10.8045C15.6845 10.9344 16.149 11.2483 16.3867 11.4324C16.4623 11.4973 16.5271 11.5406 16.6027 11.6056C16.6783 11.6706 16.7431 11.7139 16.8187 11.7788C17.8341 12.6341 18.6119 13.7167 19.206 14.8859C19.2492 14.9725 19.2816 15.07 19.3248 15.1566C19.4328 15.3731 19.5733 15.7737 19.6489 16.0118C19.8109 16.4882 19.8757 16.7697 19.9729 17.2677C20.0161 17.495 20.0486 17.7224 20.081 17.9497C20.135 18.3936 20.1134 19.1406 20.2106 19.3896C20.3402 19.7144 20.6859 20.0283 21.1396 20.0283H21.1288ZM9.61377 12.1469C9.61377 12.4609 9.67858 12.7315 9.92703 12.9589C9.94863 12.9805 10.035 13.0455 10.0675 13.0671C10.1107 13.0996 10.1863 13.1321 10.2295 13.1537C10.4563 13.2512 11.0828 13.2404 11.5149 13.3053C12.1306 13.3919 12.4763 13.5327 13.0056 13.76C13.4269 13.9332 13.859 14.2147 14.2046 14.4962C15.1228 15.2215 15.8358 16.2608 16.1598 17.4084C16.257 17.7657 16.3542 18.2529 16.3759 18.6318C16.3975 18.9782 16.3542 19.1731 16.4947 19.4654C16.5379 19.5628 16.6243 19.6819 16.6999 19.7469C16.916 19.9309 17.1536 20.0175 17.3804 20.0283H17.4345C17.6829 20.0175 17.9313 19.9093 18.1258 19.7036C18.1474 19.6819 18.1798 19.6386 18.2014 19.6061C18.4607 19.2813 18.385 18.9999 18.3958 18.6209C18.3958 18.2529 18.3202 17.8523 18.2662 17.5275C18.0178 16.0335 17.1428 14.507 16.149 13.511C15.3497 12.7099 14.3343 12.017 13.1352 11.6164C12.822 11.5082 12.5195 11.4107 12.1739 11.3458C11.9038 11.2916 11.3529 11.205 11.0936 11.205C10.6076 11.205 10.4239 11.1184 10.0675 11.3566C9.85141 11.4973 9.60297 11.7897 9.60297 12.1469H9.61377ZM9.63537 17.9389C9.63537 19.5412 11.2557 20.4073 12.5195 19.8226C13.3513 19.4329 13.8482 18.491 13.6537 17.5708C13.6213 17.4301 13.5997 17.3218 13.5349 17.1919C13.3405 16.7264 13.0272 16.3799 12.5843 16.1634C12.1631 15.9577 12.0118 15.9469 11.5473 15.9469C11.2233 15.9469 11.0072 16.0443 10.7804 16.1418C10.1971 16.3799 9.63537 17.1486 9.63537 17.9389ZM24.8771 18.5993C25.5036 18.6534 25.9681 18.1879 25.9141 17.6466V17.6141C25.8493 16.8779 25.806 16.564 25.6332 15.8061C25.4388 14.9292 25.1471 14.1064 24.8015 13.2728C24.715 13.0563 24.6286 12.8939 24.5314 12.6882C24.4774 12.58 24.4342 12.5042 24.391 12.4067C24.0021 11.584 23.1811 10.3281 22.5546 9.58112C22.479 9.49451 22.4358 9.42955 22.371 9.35377L21.3448 8.22785L20.5995 7.53498C20.2106 7.17772 19.4976 6.62558 19.0548 6.33328L17.7585 5.51049C17.4561 5.32645 16.6459 4.94753 16.3326 4.81762C14.8312 4.20053 13.6429 3.85409 12.055 3.70253C11.3421 3.63757 10.8452 4.24383 11.0936 5.01249C11.2341 5.43471 11.6338 5.79197 12.0874 5.91106L12.9084 6.03015C13.1784 6.0518 13.4593 6.13841 13.6969 6.18171C14.5719 6.35493 15.6629 6.76632 16.4731 7.17772C16.6783 7.28598 16.8944 7.39424 17.0888 7.51333C17.294 7.63241 17.4669 7.74068 17.6721 7.87059C17.953 8.04381 18.4931 8.43355 18.7631 8.6609C18.8495 8.73668 18.9359 8.80164 19.0224 8.86659C19.1088 8.94238 19.1844 9.00733 19.2816 9.08312C20.4806 10.1224 21.4528 11.3891 22.2198 12.7532C22.2738 12.8614 22.3278 12.9589 22.3818 13.0671C22.5222 13.3161 22.7167 13.7708 22.8247 14.0307C23.0407 14.572 23.1595 14.8968 23.3 15.4381C23.3648 15.6979 23.4296 15.9469 23.4836 16.1959C23.5916 16.6831 23.6456 17.5167 23.7753 17.7982C23.9481 18.1662 24.3694 18.556 24.8663 18.5993H24.8771Z" fill="#94CA6D"/>
</svg>
